<?xml version="1.0" standalone="no"?>
<!DOCTYPE svg PUBLIC "-//W3C//DTD SVG 20010904//EN"
 "http://www.w3.org/TR/2001/REC-SVG-20010904/DTD/svg10.dtd">
<svg version="1.0" xmlns="http://www.w3.org/2000/svg"
 width="1024.000000pt" height="1024.000000pt" viewBox="0 0 1024.000000 1024.000000"
 preserveAspectRatio="xMidYMid meet">

<g transform="translate(0.000000,1024.000000) scale(0.100000,-0.100000)"
fill="#000000" stroke="none">
<path d="M0 5120 l0 -5120 5120 0 5120 0 0 5120 0 5120 -5120 0 -5120 0 0
-5120z m2272 3018 c97 -63 334 -212 563 -356 66 -42 156 -99 200 -127 44 -29
116 -74 160 -102 147 -91 439 -275 490 -308 28 -18 138 -88 245 -155 222 -140
355 -226 420 -271 25 -17 83 -55 128 -84 84 -53 106 -70 87 -63 -20 6 -53 -29
-98 -103 -53 -86 -63 -97 -131 -132 l-50 -26 -35 21 c-20 12 -49 31 -66 43
-16 11 -75 47 -130 80 -55 32 -118 71 -140 86 -70 47 -327 213 -415 268 -124
77 -172 107 -302 191 -204 131 -300 193 -413 264 -60 38 -126 79 -145 91 -19
12 -39 24 -44 26 -6 3 -11 -464 -14 -1238 l-4 -1241 56 -39 c65 -45 344 -255
436 -328 481 -381 895 -719 1031 -841 144 -130 406 -404 343 -359 -23 17 -83
66 -132 110 -50 44 -110 96 -133 115 -24 19 -61 55 -84 79 -22 24 -58 57 -79
72 l-39 29 -24 -22 c-13 -12 -23 -26 -23 -30 0 -21 -30 -39 -47 -29 -11 6 -24
6 -36 -1 -11 -5 -35 -8 -53 -6 -19 2 -34 1 -34 -3 0 -4 -14 -10 -30 -14 -18
-4 -27 -11 -24 -17 4 -6 3 -9 -2 -6 -44 25 -228 138 -404 248 -47 29 -114 71
-150 93 -76 47 -101 63 -235 149 -55 35 -136 85 -180 112 -44 26 -118 71 -165
100 -47 29 -132 82 -190 118 -58 35 -135 84 -172 107 l-68 43 0 1769 c0 1683
1 1769 18 1760 9 -6 61 -39 114 -73z m5844 -3453 c-2 -6 -44 -35 -92 -65 -49
-29 -129 -79 -179 -110 -49 -31 -216 -135 -370 -230 -301 -186 -310 -191 -430
-268 -44 -28 -89 -55 -100 -59 -11 -5 -51 -29 -90 -54 -99 -65 -166 -103 -164
-93 4 22 -3 24 -31 7 -16 -9 -30 -23 -30 -31 0 -7 -5 -10 -12 -6 -8 5 -9 2 -5
-9 4 -11 -1 -20 -16 -28 -18 -9 -20 -9 -9 2 20 21 15 25 -35 28 -47 2 -90 32
-77 53 3 5 0 16 -7 24 -9 11 -9 21 -1 39 7 15 8 25 2 25 -6 0 -10 9 -10 20 0
11 -5 20 -12 20 -6 0 3 12 20 26 18 15 32 32 32 37 0 6 -12 0 -27 -14 -16 -13
-48 -40 -73 -59 -106 -80 -336 -285 -595 -529 -192 -180 -96 -62 135 167 217
215 387 363 795 690 55 44 144 116 197 159 148 119 360 283 483 374 61 45 143
109 183 142 l72 61 0 1242 0 1242 -242 -152 c-134 -84 -254 -159 -268 -167
-141 -88 -340 -213 -432 -273 -29 -19 -123 -77 -208 -129 -85 -53 -200 -125
-255 -160 -55 -35 -147 -93 -205 -129 -127 -79 -560 -349 -685 -428 -49 -31
-166 -105 -259 -163 -92 -59 -173 -107 -179 -107 -5 0 -33 15 -61 33 -28 19
-109 71 -179 117 l-129 84 24 18 c12 10 77 51 143 92 66 40 194 119 285 175
91 57 239 148 330 204 91 55 217 132 280 172 63 39 176 109 250 155 74 45 162
99 195 120 33 20 103 63 155 95 52 32 136 84 185 115 78 50 248 154 348 214
18 10 84 51 147 91 63 40 216 135 340 212 427 265 725 451 795 497 l70 47 3
-1763 c1 -970 0 -1768 -2 -1773z m-4879 1849 c142 -92 317 -205 388 -252 72
-46 169 -109 217 -141 47 -31 155 -101 240 -155 561 -365 761 -498 765 -511 3
-10 -311 -226 -349 -240 -11 -5 -181 103 -552 349 -295 196 -538 356 -541 356
-3 0 -5 -295 -5 -655 0 -360 -3 -655 -7 -654 -11 0 -70 41 -266 182 l-164 119
-5 131 c-3 73 -6 473 -7 891 -2 675 0 758 13 753 9 -4 131 -81 273 -173z
m4044 -1604 c-83 -68 -192 -147 -276 -203 -55 -36 -108 -73 -117 -81 -10 -9
-20 -16 -23 -16 -3 0 -5 295 -5 655 0 403 -4 655 -9 655 -12 0 -95 -52 -298
-185 -241 -158 -519 -339 -633 -411 -58 -37 -121 -78 -141 -91 -19 -12 -38
-23 -41 -23 -11 0 -343 215 -371 240 -7 6 128 98 333 228 30 19 78 49 105 67
90 58 217 140 353 226 73 46 165 105 205 131 40 26 95 61 122 77 28 17 80 50
117 73 36 24 149 95 250 159 100 64 242 153 313 198 l130 82 3 -883 c2 -852 1
-883 -17 -898z m-2925 1439 c3 -6 -5 -3 -20 6 -14 10 -26 19 -26 22 0 7 39
-17 46 -28z m861 -1162 c59 -40 126 -86 149 -103 l40 -29 -65 -2 c-37 -2 -87
-8 -112 -14 -59 -13 -194 4 -257 34 -25 11 -60 20 -76 19 -28 -2 -29 -1 -16
12 13 13 221 156 227 156 1 0 50 -33 110 -73z m-1508 -105 c20 -15 133 -90
251 -167 276 -178 280 -182 296 -236 6 -24 45 -136 85 -249 131 -372 297 -861
312 -920 6 -24 5 -25 -34 -22 -32 3 -49 14 -92 56 -53 53 -99 132 -252 431
-39 78 -91 174 -115 215 -91 155 -144 282 -165 390 -4 19 -20 77 -36 129 -16
52 -29 102 -29 112 0 9 -3 24 -6 33 -6 14 -116 111 -226 199 -47 36 -60 57
-37 57 6 0 28 -13 48 -28z m2681 -110 c0 -15 -25 -41 -90 -95 l-65 -53 -2 -65
c-1 -35 -3 -82 -4 -104 -1 -22 0 -71 3 -109 5 -53 2 -83 -13 -129 -10 -33 -19
-66 -19 -74 0 -21 -29 -75 -59 -108 -15 -16 -46 -61 -68 -100 -53 -92 -73
-125 -104 -171 -14 -22 -47 -77 -73 -124 -26 -47 -57 -93 -69 -103 -25 -22
-62 -16 -88 15 -12 13 -24 18 -38 13 -20 -6 36 169 262 823 20 57 34 109 31
116 -5 14 14 29 221 168 157 106 175 116 175 100z m-2590 -1333 c17 -13 18
-17 5 -10 -33 17 -51 31 -40 31 6 0 21 -10 35 -21z"/>
</g>
</svg>
